<svg width="30" height="30" viewBox="0 0 30 30" fill="none" xmlns="http://www.w3.org/2000/svg">
<path d="M5.62402 4.6875L24.374 25.3125" stroke="#B1B1B4" stroke-width="1.26" stroke-linecap="round" stroke-linejoin="round"/>
<path d="M18.1509 18.4688C17.2906 19.2568 16.1651 19.6919 14.9985 19.6875C14.0524 19.6874 13.1285 19.401 12.3482 18.866C11.5679 18.331 10.9678 17.5723 10.6267 16.6899C10.2857 15.8074 10.2196 14.8424 10.4373 13.9216C10.6549 13.0009 11.1461 12.1676 11.8462 11.5312" stroke="#B1B1B4" stroke-width="1.26" stroke-linecap="round" stroke-linejoin="round"/>
<path d="M8.6709 8.03809C3.88965 10.4521 1.87402 14.999 1.87402 14.999C1.87402 14.999 5.62402 23.4365 14.999 23.4365C17.1958 23.4544 19.3652 22.9482 21.3271 21.96" stroke="#B1B1B4" stroke-width="1.26" stroke-linecap="round" stroke-linejoin="round"/>
<path d="M24.4443 19.8164C26.999 17.5313 28.124 15 28.124 15C28.124 15 24.374 6.56253 14.999 6.56253C14.1863 6.56092 13.3748 6.62757 12.5732 6.76175" stroke="#B1B1B4" stroke-width="1.26" stroke-linecap="round" stroke-linejoin="round"/>
<path d="M15.8779 10.3945C16.8748 10.5834 17.7832 11.0914 18.466 11.8419C19.1488 12.5923 19.5689 13.5445 19.6631 14.5547" stroke="#B1B1B4" stroke-width="1.26" stroke-linecap="round" stroke-linejoin="round"/>
</svg>
