<svg width="23" height="25" viewBox="0 0 23 25" fill="none" xmlns="http://www.w3.org/2000/svg">
<path d="M21.2832 9.04004H2.5332C2.01544 9.04004 1.5957 9.45977 1.5957 9.97754V23.1025C1.5957 23.6203 2.01544 24.04 2.5332 24.04H21.2832C21.801 24.04 22.2207 23.6203 22.2207 23.1025V9.97754C22.2207 9.45977 21.801 9.04004 21.2832 9.04004Z" stroke="#646468" stroke-width="1.2" stroke-linecap="round" stroke-linejoin="round"/>
<path d="M7.68945 9.04004V4.82129C7.68945 3.70241 8.13393 2.62935 8.9251 1.83818C9.71627 1.04701 10.7893 0.602539 11.9082 0.602539C13.0271 0.602539 14.1001 1.04701 14.8913 1.83818C15.6825 2.62935 16.127 3.70241 16.127 4.82129V9.04004" stroke="#646468" stroke-width="1.2" stroke-linecap="round" stroke-linejoin="round"/>
<path d="M11.9082 17.9463C12.6849 17.9463 13.3145 17.3167 13.3145 16.54C13.3145 15.7634 12.6849 15.1338 11.9082 15.1338C11.1316 15.1338 10.502 15.7634 10.502 16.54C10.502 17.3167 11.1316 17.9463 11.9082 17.9463Z" fill="#646468"/>
</svg>
