<svg width="16" height="16" viewBox="0 0 16 16" fill="none" xmlns="http://www.w3.org/2000/svg">
<path d="M7.13788 2.50016L1.63788 12.0002C1.55026 12.1519 1.50406 12.324 1.50391 12.4993C1.50375 12.6745 1.54965 12.8467 1.637 12.9986C1.72435 13.1506 1.85009 13.2768 2.00162 13.3649C2.15315 13.4529 2.32515 13.4995 2.50038 13.5002H13.5004C13.6756 13.4995 13.8476 13.4529 13.9992 13.3649C14.1507 13.2768 14.2764 13.1506 14.3638 12.9986C14.4511 12.8467 14.497 12.6745 14.4969 12.4993C14.4967 12.324 14.4505 12.1519 14.3629 12.0002L8.86288 2.50016C8.77592 2.3482 8.65036 2.22192 8.4989 2.13409C8.34744 2.04626 8.17547 2 8.00038 2C7.8253 2 7.65333 2.04626 7.50187 2.13409C7.35041 2.22192 7.22485 2.3482 7.13788 2.50016Z" fill="#FF313D"/>
<path d="M8 6.5V9" stroke="white" stroke-linecap="round" stroke-linejoin="round"/>
<path d="M8 11.875C8.34518 11.875 8.625 11.5952 8.625 11.25C8.625 10.9048 8.34518 10.625 8 10.625C7.65482 10.625 7.375 10.9048 7.375 11.25C7.375 11.5952 7.65482 11.875 8 11.875Z" fill="white"/>
</svg>
